<svg xmlns="http://www.w3.org/2000/svg" width="960" height="620" viewBox="0 0 960 620">
  <defs><linearGradient id="a" x1="0" x2="1" y1="0" y2="1"><stop stop-color="#fff8f1"/><stop offset=".5" stop-color="#fff2e8"/><stop offset="1" stop-color="#f7fbff"/></linearGradient><linearGradient id="b" x1="0" x2="1"><stop stop-color="#ff7043"/><stop offset="1" stop-color="#111827"/></linearGradient></defs>
  <rect width="960" height="620" rx="34" fill="url(#a)"/>
  <rect x="46" y="38" width="868" height="62" rx="22" fill="#fff" opacity=".88"/>
  <rect x="74" y="52" width="42" height="36" rx="12" fill="url(#b)"/><text x="88" y="78" font-family="Arial" font-size="24" font-weight="800" fill="#fff">V</text><text x="134" y="78" font-family="Arial" font-size="24" font-weight="700" fill="#26170f">Volt Shop</text>
  <rect x="596" y="56" width="70" height="18" rx="9" fill="#ffd5c4"/><rect x="690" y="56" width="70" height="18" rx="9" fill="#ffd5c4"/><rect x="786" y="50" width="104" height="30" rx="15" fill="url(#b)"/>
  <text x="76" y="184" font-family="Arial" font-size="54" font-weight="800" fill="#26170f">Modern Commerce</text><text x="76" y="232" font-family="Arial" font-size="24" fill="#71584a">product page, cart, coupon and order tracking</text>
  <rect x="76" y="282" width="150" height="48" rx="18" fill="url(#b)"/>
  <rect x="560" y="146" width="270" height="342" rx="30" fill="#fff"/><rect x="598" y="184" width="194" height="164" rx="30" fill="url(#b)"/><rect x="598" y="372" width="92" height="72" rx="18" fill="#ffe1d3"/><rect x="710" y="372" width="82" height="72" rx="18" fill="#ffe1d3"/>
  <rect x="76" y="418" width="136" height="98" rx="22" fill="#fff"/><rect x="236" y="418" width="136" height="98" rx="22" fill="#fff"/><rect x="396" y="418" width="136" height="98" rx="22" fill="#fff"/>
</svg>
